<svg xmlns="http://www.w3.org/2000/svg" xmlns:xlink="http://www.w3.org/1999/xlink" width="131.821" height="29.012" viewBox="0 0 131.821 29.012">
  <defs>
    <linearGradient id="linear-gradient" x1="0.5" x2="1.165" y2="1.245" gradientUnits="objectBoundingBox">
      <stop offset="0" stop-color="#eccd22"/>
      <stop offset="1" stop-color="#ec2227"/>
    </linearGradient>
  </defs>
  <path id="Union_625" data-name="Union 625" d="M12580.364-13096.988a4.369,4.369,0,0,1-4.365-4.361v-12.311h0a4.367,4.367,0,0,1,4.362-4.364h7.022l-6.077-7.054a.558.558,0,0,1,.059-.787.559.559,0,0,1,.788.06l6.292,7.3,6.292-7.3a.558.558,0,0,1,.787-.06.558.558,0,0,1,.059.787l-6.077,7.057h7.023a4.364,4.364,0,0,1,4.361,4.361v12.311a4.366,4.366,0,0,1-4.361,4.361Zm12.33-2.829a.559.559,0,0,0,.56.56h2.478a.559.559,0,0,0,.56-.56.558.558,0,0,0-.56-.557h-2.478A.558.558,0,0,0,12592.694-13099.817Zm-12.09,0a.559.559,0,0,0,.56.56h9.912a.559.559,0,0,0,.561-.56.558.558,0,0,0-.561-.557h-9.912A.558.558,0,0,0,12580.6-13099.817Zm-1.249-13.629v9.649a1.224,1.224,0,0,0,1.223,1.222h15.739a1.226,1.226,0,0,0,1.223-1.222v-9.649a1.227,1.227,0,0,0-1.223-1.225h-15.739A1.224,1.224,0,0,0,12579.355-13113.446Zm37.9,12.327a1.881,1.881,0,0,1-1.778-1.252,7.942,7.942,0,0,1-.62-3.169q-2.48,4.32-5.04,4.421h-.039q-2.684,0-2.682-4.062a13.633,13.633,0,0,1,1.159-5.38l-2.579,1.6a.729.729,0,0,1-.422.139.465.465,0,0,1-.379-.211.966.966,0,0,1-.157-.59.631.631,0,0,1,.378-.58l4.579-2.761a1.043,1.043,0,0,1,.652-.257.861.861,0,0,1,.58.218.63.63,0,0,1,.25.461.307.307,0,0,1-.062.182,12.749,12.749,0,0,0-1.68,3.778,12.071,12.071,0,0,0-.561,3.541c0,1.532.362,2.3,1.081,2.3h.122a4.391,4.391,0,0,0,2.407-1.7,18.707,18.707,0,0,0,2.811-4.922,8.126,8.126,0,0,1,.712-1.979,1.172,1.172,0,0,1,.987-.738h.04a.622.622,0,0,1,.491.218.807.807,0,0,1,.19.55,2.876,2.876,0,0,1-.059.6,14.273,14.273,0,0,1-.57,1.459,7.791,7.791,0,0,0-.612,1.989,12.029,12.029,0,0,0-.1,1.479q0,3.04,1.062,3.041h.1a3.068,3.068,0,0,0,1.641-1.021,18.605,18.605,0,0,0,3.8-6.358,3.212,3.212,0,0,1-1.881-1.231,3.354,3.354,0,0,1-.679-2.029,2.583,2.583,0,0,1,.729-1.861,2.759,2.759,0,0,1,2.088-.758,1.749,1.749,0,0,1,1.463.781,3.565,3.565,0,0,1,.54,2.1,8.872,8.872,0,0,1-.221,1.779,8.209,8.209,0,0,0,2.319-1.18.768.768,0,0,1,.451-.158.5.5,0,0,1,.389.179.6.6,0,0,1,.162.421.7.7,0,0,1-.3.541,8.305,8.305,0,0,1-3.384,1.479,17.576,17.576,0,0,1-1.3,2.938,26.592,26.592,0,0,1-2.74,4.082,4.744,4.744,0,0,1-3.321,1.92Zm5-13.16a1.729,1.729,0,0,0-.28,1.018,2.122,2.122,0,0,0,.359,1.163,1.866,1.866,0,0,0,1.021.777,7.184,7.184,0,0,0,.319-2q0-1.359-.762-1.36A.806.806,0,0,0,12622.26-13114.279Zm52.5,10.9a2.851,2.851,0,0,1-2.339,1.6,1.983,1.983,0,0,1-1.571-.669,2.629,2.629,0,0,1-.59-1.8,4.716,4.716,0,0,1,.5-2.132c.158-.319.3-.586.419-.8s.26-.435.422-.668.247-.359.26-.373q.341-.5.7-.5a.853.853,0,0,1,.593.208c.152.142.228.253.228.342a.468.468,0,0,1-.039.208c-.146.175-.257.313-.33.422s-.164.233-.27.379a4.873,4.873,0,0,0-.959,2.76c0,.854.261,1.282.777,1.282.669,0,1.394-.9,2.181-2.7l.32-.722c.319-1.187.668-1.779,1.041-1.779h.059c.468,0,.7.148.7.441a4.22,4.22,0,0,1-.481,1.318,5.5,5.5,0,0,0-.619,2.3c0,.8.273,1.2.82,1.2a1.948,1.948,0,0,0,1.338-.672,5.275,5.275,0,0,0,1.12-1.646,3.241,3.241,0,0,0,.2-.362,2.869,2.869,0,0,1-1.13-.979,2.309,2.309,0,0,1-.408-1.292,1.548,1.548,0,0,1,.468-1.14,1.8,1.8,0,0,1,1.331-.471,1.519,1.519,0,0,1,1.149.569,1.99,1.99,0,0,1,.432,1.292,4.889,4.889,0,0,1-.161,1.32,6.178,6.178,0,0,0,1.116-.167,5.439,5.439,0,0,1,.534-.683,3.719,3.719,0,0,1,2.75-1.41c.547,0,.82.139.82.419v.122h.458c.376,0,.561.171.561.521v.118l-.561,3.439a1,1,0,0,0-.02.221c0,.319.115.48.339.48q.762,0,1.8-1.341a.6.6,0,0,1,.126-.128c0-.127-.008-.258-.008-.393v-.221a.816.816,0,0,1-.448.182.384.384,0,0,1-.319-.172.652.652,0,0,1-.132-.418.413.413,0,0,1,.24-.382c.162-.086.415-.208.762-.369a18.112,18.112,0,0,1,1.4-5.06,6.491,6.491,0,0,1,1.338-2.01,2.286,2.286,0,0,1,1.562-.791,1.362,1.362,0,0,1,1.09.383,1.339,1.339,0,0,1,.33.919v.138a6.125,6.125,0,0,1-1.11,2.942,12.074,12.074,0,0,1-2.329,2.56,9.442,9.442,0,0,1,2.118-.561.43.43,0,0,1,.313.168.661.661,0,0,1,.148.451c0,.188-.112.3-.339.34a15.9,15.9,0,0,0-3.12,1.021c-.026.425-.043.757-.043,1q0,1.9.824,1.9a3.367,3.367,0,0,0,2.217-1.4.491.491,0,0,1,.162-.1,4.37,4.37,0,0,1,.958-2.623,2.932,2.932,0,0,1,2.421-1.251,1.919,1.919,0,0,1,1.351.471,1.439,1.439,0,0,1,.511,1.09,1.906,1.906,0,0,1-.382,1.141c-.254.346-.472.521-.659.521a.509.509,0,0,1-.418-.172.512.512,0,0,1-.142-.329.956.956,0,0,1,.128-.412,1.062,1.062,0,0,0,.132-.511.447.447,0,0,0-.181-.389.71.71,0,0,0-.419-.132,1.647,1.647,0,0,0-1.231.7,3.025,3.025,0,0,0-.59,2,1.567,1.567,0,0,0,.422,1.16,1.485,1.485,0,0,0,1.1.422,4.037,4.037,0,0,0,2.709-1.437,28.316,28.316,0,0,1,1.33-6.865,8.882,8.882,0,0,1,1.61-3.008,2.912,2.912,0,0,1,2.23-1.192,1.5,1.5,0,0,1,1.14.441,1.605,1.605,0,0,1,.419,1.159v.143a7.04,7.04,0,0,1-1.229,2.938,22.348,22.348,0,0,1-3.63,3.921l-.359,2a8.916,8.916,0,0,1,2.23-2.687,3.8,3.8,0,0,1,1.789-.972,1.346,1.346,0,0,1,.84.23.628.628,0,0,1,.3.49,1.734,1.734,0,0,1-.1.551c-.069.19-.307.768-.722,1.729a6.2,6.2,0,0,0-.619,2.078c0,.135.075.2.23.2a2.962,2.962,0,0,0,1.008-.461,11.737,11.737,0,0,0,1.443-1,.44.44,0,0,1,.247-.063c.1,0,.2.083.3.241a1.126,1.126,0,0,1,.151.609.807.807,0,0,1-.4.652,6.654,6.654,0,0,1-3.562,1.356.938.938,0,0,1-.669-.3,1.306,1.306,0,0,1-.312-.978,5.687,5.687,0,0,1,.48-1.9q.48-1.22.481-1.3c0-.056-.02-.082-.06-.082a.7.7,0,0,0-.322.161,8.252,8.252,0,0,0-1.559,1.591,6.616,6.616,0,0,0-1.061,1.74,3.433,3.433,0,0,1-.4.879.711.711,0,0,1-.561.188.562.562,0,0,1-.56-.368,2.1,2.1,0,0,1-.146-.657,6.111,6.111,0,0,1-.626.469,4.221,4.221,0,0,1-2.358.659,2.622,2.622,0,0,1-2.19-1.1,2.314,2.314,0,0,1-.235-.386,4.033,4.033,0,0,1-2.825,1.427,1.7,1.7,0,0,1-1.631-.869,3.107,3.107,0,0,1-.205-.479,5.65,5.65,0,0,1-.865.758,2.448,2.448,0,0,1-1.41.531,1.462,1.462,0,0,1-1.041-.353,1.527,1.527,0,0,1-.447-.949v.04a2.635,2.635,0,0,1-.9,1,2.568,2.568,0,0,1-1.381.359,1.579,1.579,0,0,1-1.291-.609,2.443,2.443,0,0,1-.491-1.571,4.553,4.553,0,0,1,.2-1.336,5.055,5.055,0,0,1-.613.038l-.319-.023a7.481,7.481,0,0,1-2.039,2.843,3.221,3.221,0,0,1-2.043.817Q12675.081-13101.741,12674.76-13103.379Zm8.021-.9c0,.655.253.981.757.981a1.363,1.363,0,0,0,1.031-.6,3.386,3.386,0,0,0,.672-1.32l.541-2.24a2.675,2.675,0,0,0-2.082,1.1l-.061.074a.365.365,0,0,1-.244.323A2.973,2.973,0,0,0,12682.781-13104.281Zm-3.71-4.009a.806.806,0,0,0-.151.49,1.234,1.234,0,0,0,.741,1.12,3.558,3.558,0,0,0,.24-1.1q0-.722-.461-.722A.442.442,0,0,0,12679.071-13108.29Zm12.93-3.689a9.6,9.6,0,0,0-1.42,3.92c.026-.026.188-.208.488-.54l.56-.62c.072-.079.234-.27.481-.569a4.216,4.216,0,0,0,.49-.692c.079-.157.188-.372.33-.639a2.718,2.718,0,0,0,.279-.761,3.357,3.357,0,0,0,.069-.64c0-.187-.053-.286-.158-.3Q12692.559-13112.82,12692-13111.979Zm10.018.721a15.961,15.961,0,0,0-.757,2.8,18.824,18.824,0,0,0,2.138-2.712,4.75,4.75,0,0,0,.942-2.328.372.372,0,0,0-.422-.422Q12703-13113.92,12702.019-13111.259Zm-60.856,9.02a1.364,1.364,0,0,1-.541-1.2,1.669,1.669,0,0,1,.35-1,3.577,3.577,0,0,1,.761-.78c.271-.2.53-.405.777-.62a.916.916,0,0,0,.383-.6c.006-.187-.073-.279-.231-.279a2.065,2.065,0,0,0-1.4.747,8.739,8.739,0,0,0-1.281,1.65,9.987,9.987,0,0,1-1.229,1.65,1.874,1.874,0,0,1-1.271.752c-.452,0-.694-.464-.732-1.392a5.544,5.544,0,0,1-1.187.841,4.635,4.635,0,0,1-2.25.59,2.99,2.99,0,0,1-1.99-.691,2.149,2.149,0,0,1-.493-.594,5.911,5.911,0,0,1-1.025.7,4.638,4.638,0,0,1-2.25.59,2.982,2.982,0,0,1-1.989-.691,2.476,2.476,0,0,1-.82-2.01,4.434,4.434,0,0,1,.969-2.747,2.872,2.872,0,0,1,2.352-1.271,2.029,2.029,0,0,1,1.36.461,1.544,1.544,0,0,1,.541,1.238,2.117,2.117,0,0,1-.9,1.779,6.894,6.894,0,0,1-2.718,1.061,1.321,1.321,0,0,0,1.439.859,4.152,4.152,0,0,0,2.729-1.1c-.007-.092-.011-.187-.011-.284a4.443,4.443,0,0,1,.972-2.747,2.869,2.869,0,0,1,2.35-1.271,2.024,2.024,0,0,1,1.36.461,1.546,1.546,0,0,1,.54,1.238,2.123,2.123,0,0,1-.9,1.779,6.892,6.892,0,0,1-2.721,1.061,1.325,1.325,0,0,0,1.439.859,4.323,4.323,0,0,0,3.021-1.356.3.3,0,0,1,.21-.082,25.046,25.046,0,0,1,.63-4.28,19.656,19.656,0,0,1,.93-3.011,6.772,6.772,0,0,1,1.472-2.27,2.85,2.85,0,0,1,2.06-.919,1.309,1.309,0,0,1,1.031.418,1.792,1.792,0,0,1,.368,1.219,4.8,4.8,0,0,1-.619,2.033,13.533,13.533,0,0,1-1.5,2.329,26.216,26.216,0,0,1-2.737,2.98,16.81,16.81,0,0,0-.3,2.6q2.742-4.9,5.122-4.9a1.315,1.315,0,0,1,.988.363,1.357,1.357,0,0,1,.349.988,2,2,0,0,1-.378,1.172,3.181,3.181,0,0,1-.841.841c-.84.5-1.3,1.018-1.4,1.538v.1c0,.254.2.382.6.382a2.308,2.308,0,0,0,1.36-.6,5.468,5.468,0,0,0,1-.991,4.441,4.441,0,0,1,.968-2.678,2.874,2.874,0,0,1,2.353-1.271,2.012,2.012,0,0,1,1.356.461,1.535,1.535,0,0,1,.541,1.238,2.123,2.123,0,0,1-.9,1.779,6.9,6.9,0,0,1-2.722,1.061,1.328,1.328,0,0,0,1.443.859,4.288,4.288,0,0,0,2.962-1.3,13.836,13.836,0,0,1,.816-3.373.92.92,0,0,1,.88-.721.553.553,0,0,1,.4.157.479.479,0,0,1,.158.333.921.921,0,0,1-.02.23,18.211,18.211,0,0,0-.738,2.959,12.212,12.212,0,0,1,2.039-2.751,2.794,2.794,0,0,1,1.779-.949,1.058,1.058,0,0,1,.7.251.7.7,0,0,1,.3.53,8.906,8.906,0,0,1-.511,1.989q-.508,1.551-.55,1.828a3.605,3.605,0,0,0-.039.491c0,.142.043.208.128.2s.139-.01.151-.01a3.846,3.846,0,0,0,1.582-.945,4.786,4.786,0,0,1,1.037-2.985,2.982,2.982,0,0,1,2.382-1.351,2.236,2.236,0,0,1,.7.119q.92-6.637,3.72-6.638a1.389,1.389,0,0,1,1.011.4,1.438,1.438,0,0,1,.451.942,3.927,3.927,0,0,1,.021.418,7.535,7.535,0,0,1-1.021,3.62q-.558,1.039-.89,1.581t-1.149,1.72c-.547.787-.86,1.239-.942,1.36v.179q0,1.718.923,1.719a2.977,2.977,0,0,0,2.157-1.459.448.448,0,0,1,.323-.1.63.63,0,0,1,.418.178.56.56,0,0,1,.2.422.778.778,0,0,1-.162.458,3.925,3.925,0,0,1-3.1,1.762,2.056,2.056,0,0,1-1.96-1.38,2.1,2.1,0,0,1-2.1,1.42,1.852,1.852,0,0,1-1.442-.659,2.209,2.209,0,0,1-.3-.444,4.332,4.332,0,0,1-.937.583,4.026,4.026,0,0,1-1.6.438c-.774,0-1.159-.418-1.159-1.258a6.81,6.81,0,0,1,.4-1.9c.268-.826.4-1.268.4-1.327s-.013-.092-.039-.092h-.02a6.4,6.4,0,0,0-1.43,1.591,11.384,11.384,0,0,0-1.331,2.049,2.663,2.663,0,0,1-.408.771.768.768,0,0,1-.551.168c-.415-.008-.656-.368-.722-1.077a6.336,6.336,0,0,1-.9.59,4.643,4.643,0,0,1-2.25.59,2.983,2.983,0,0,1-1.99-.691,2.136,2.136,0,0,1-.554-.71,6.358,6.358,0,0,1-.925.742,3.382,3.382,0,0,1-1.782.679A2.184,2.184,0,0,1,12641.162-13102.239Zm19.1-4.16a3.081,3.081,0,0,0-.7,1.96v.221q.06.918.762.919a1.056,1.056,0,0,0,.909-.53,5.137,5.137,0,0,0,.55-1.931l.24-1.519A2.164,2.164,0,0,0,12660.258-13106.4Zm-13.259-.151a2.54,2.54,0,0,0-.6,1.61q2.5-.86,2.5-1.8c0-.375-.221-.56-.658-.56A1.653,1.653,0,0,0,12647-13106.551Zm-14.4,0a2.534,2.534,0,0,0-.6,1.61q2.5-.86,2.5-1.8c0-.375-.221-.56-.662-.56A1.647,1.647,0,0,0,12632.6-13106.551Zm-5.762,0a2.54,2.54,0,0,0-.6,1.61q2.5-.86,2.5-1.8c0-.375-.221-.56-.659-.56A1.652,1.652,0,0,0,12626.839-13106.551Zm37.619-5.851c-.145.362-.3.8-.447,1.331a39.037,39.037,0,0,0-.672,4.031,2.2,2.2,0,0,0,.161-.283c.026-.026.188-.267.48-.728s.554-.89.777-1.291a12.915,12.915,0,0,0,.741-1.618,4.979,4.979,0,0,0,.4-1.772c0-.5-.129-.751-.382-.751C12665.081-13113.482,12664.726-13113.12,12664.458-13112.4Zm-24.7.8a14.89,14.89,0,0,0-1.1,3.679q1.28-1.477,2.02-2.52a6.67,6.67,0,0,0,.811-1.42,3.182,3.182,0,0,0,.25-1.13c0-.326-.121-.491-.362-.491C12640.846-13113.482,12640.306-13112.853,12639.759-13111.6Z" transform="translate(-12575.999 13126)" fill="url(#linear-gradient)"/>
</svg>
